PathFileType	4	(X/Y/Z)	/Users/itak/Documents/Research/Walk-IL/dataset/trc/00461_00167.trc
DataRate	CameraRate	NumFrames	NumMarkers	Units	OrigDataRate	OrigDataStartFrame	OrigNumFrames
100.000000	100.000000	4	53	mm	100.000000	138	553
Frame#	Time	RPSI			LPSI			L3			STRN			T10			C7			CLAV			RBAK			LBAK			LSHO			LUPA			LAEL			LAOL			LWTS			LWPS			LFRA			LIFD			LHPS			LHTS			RSHO			RUPA			RAEL			RAOL			RWTS			RWPS			RFRA			RIFD			RHTS			RHPS			RBHD			LFHD			RFHD			LBHD			LHIP			RHIP			RASI			LASI			LKNE			LTHI			LANK			LTIP			LTOE			LMT1			LMT5			LHEE			RKNE			RTHI			RANK			RTIP			RTOE			RMT1			RMT5			RHEE			
		X1	Y1	Z1	X2	Y2	Z2	X3	Y3	Z3	X4	Y4	Z4	X5	Y5	Z5	X6	Y6	Z6	X7	Y7	Z7	X8	Y8	Z8	X9	Y9	Z9	X10	Y10	Z10	X11	Y11	Z11	X12	Y12	Z12	X13	Y13	Z13	X14	Y14	Z14	X15	Y15	Z15	X16	Y16	Z16	X17	Y17	Z17	X18	Y18	Z18	X19	Y19	Z19	X20	Y20	Z20	X21	Y21	Z21	X22	Y22	Z22	X23	Y23	Z23	X24	Y24	Z24	X25	Y25	Z25	X26	Y26	Z26	X27	Y27	Z27	X28	Y28	Z28	X29	Y29	Z29	X30	Y30	Z30	X31	Y31	Z31	X32	Y32	Z32	X33	Y33	Z33	X34	Y34	Z34	X35	Y35	Z35	X36	Y36	Z36	X37	Y37	Z37	X38	Y38	Z38	X39	Y39	Z39	X40	Y40	Z40	X41	Y41	Z41	X42	Y42	Z42	X43	Y43	Z43	X44	Y44	Z44	X45	Y45	Z45	X46	Y46	Z46	X47	Y47	Z47	X48	Y48	Z48	X49	Y49	Z49	X50	Y50	Z50	X51	Y51	Z51	X52	Y52	Z52	X53	Y53	Z53	

139	1.38	-1247.652465820312	970.5394897460938	-532.4942016601562	-1249.581176757812	970.00439453125	-674.6052856445312	-1230.59375	1054.908325195312	-585.7775268554688	-971.1167602539062	1265.904418945312	-611.8907470703125	-1252.704711914062	1173.877197265625	-587.2749633789062	-1204.12158203125	1445.40380859375	-575.6484985351562	-1013.937622070312	1377.4267578125	-610.294921875	-1246.53564453125	1320.125122070312	-479.3048706054688	-1243.291748046875	1396.899047851562	-672.9187622070312	-1152.249755859375	1429.830444335938	-763.5875854492188	-1159.648681640625	1309.58447265625	-861.898681640625	-1119.381591796875	1092.767211914062	-890.040283203125	-1194.938232421875	1075.3466796875	-821.2266845703125	-1019.745422363281	900.2188720703125	-839.2452392578125	-1065.763427734375	878.0105590820312	-894.399169921875	-1090.517822265625	1006.879089355469	-896.887451171875	-1009.050720214844	732.0687255859375	-825.3920288085938	-1050.407836914062	799.2224731445312	-890.77978515625	-995.7272338867188	813.9441528320312	-844.7835083007812	-1119.36767578125	1420.735107421875	-423.1823120117188	-1128.545043945312	1358.865966796875	-346.9896850585938	-1105.430786132812	1072.812866210938	-290.8055725097656	-1162.401733398438	1055.863159179688	-322.7976989746094	-1011.598999023438	868.859130859375	-355.9544067382812	-1065.343383789062	853.69482421875	-286.7782897949219	-1098.392578125	1014.010070800781	-283.2044677734375	-1008.541748046875	713.4761352539062	-351.7642517089844	-991.4271240234375	772.375	-346.2291564941406	-1046.663208007812	767.2598876953125	-292.0762023925781	-1114.095581054688	1648.890258789062	-490.7721557617188	-1008.721801757812	1675.767700195312	-666.3287963867188	-985.7168579101562	1671.905395507812	-537.5952758789062	-1160.565551757812	1657.955078125	-661.548095703125	-1115.774658203125	864.247802734375	-798.7308349609375	-1133.038452148438	861.2779541015625	-400.3106689453125	-1026.848754882812	900.2636108398438	-461.6485595703125	-1017.986633300781	902.6546020507812	-719.292724609375	-1110.500244140625	441.8185424804688	-741.6385498046875	-1085.529052734375	593.121826171875	-771.6234741210938	-1228.472045898438	38.74078369140625	-720.5823364257812	-1132.341186523438	289.7268981933594	-746.8325805664062	-995.9315185546875	51.74063491821289	-655.7557373046875	-1068.387817382812	53.26788330078125	-623.9947509765625	-1077.089111328125	49.29518508911133	-736.4745483398438	-1270.347900390625	46.92904281616211	-654.8809814453125	-1110.334350585938	468.6535339355469	-405.5489501953125	-1089.86865234375	730.4197998046875	-383.693359375	-1187.700439453125	40.98711013793945	-375.7231140136719	-1121.572143554688	328.4935607910156	-387.7466430664062	-982.7888793945312	50.67949295043945	-452.9132690429688	-1050.19189453125	53.53589630126953	-481.8510437011719	-1049.388671875	47.05597305297852	-374.0195922851562	-1260.346435546875	33.37922668457031	-415.0191955566406	
140	1.39	-1247.329956054688	969.8135986328125	-534.3696899414062	-1249.526977539062	969.4851684570312	-676.5164184570312	-1230.32470703125	1054.669921875	-587.6244506835938	-970.8667602539062	1265.6845703125	-614.9276123046875	-1252.275024414062	1173.705688476562	-588.6510009765625	-1203.539916992188	1445.172729492188	-577.0513305664062	-1013.650146484375	1377.22802734375	-612.9880981445312	-1245.28173828125	1319.900024414062	-480.4181213378906	-1243.3515625	1396.745727539062	-674.0367431640625	-1152.965576171875	1429.746459960938	-765.34375	-1160.937377929688	1309.525634765625	-863.7113647460938	-1120.453491210938	1092.560668945312	-891.7567138671875	-1195.701416015625	1075.16552734375	-822.631591796875	-1019.971130371094	900.5113525390625	-840.7596435546875	-1066.021606445312	878.0205078125	-895.7402954101562	-1091.316528320312	1006.792541503906	-898.4772338867188	-1008.524597167969	732.49267578125	-826.5303344726562	-1050.287353515625	799.2755126953125	-891.9397583007812	-995.5980224609375	814.3057250976562	-846.1815795898438	-1117.70458984375	1420.48828125	-425.2207946777344	-1126.34423828125	1358.788208007812	-348.8671264648438	-1103.105590820312	1072.890991210938	-292.3121643066406	-1160.48193359375	1055.958740234375	-323.5358581542969	-1009.795776367188	868.7444458007812	-357.478759765625	-1063.181884765625	853.7603759765625	-287.9793395996094	-1096.049682617188	1014.088256835938	-284.6676025390625	-1006.897338867188	713.3350830078125	-352.9544372558594	-989.6759033203125	772.2730102539062	-347.6589660644531	-1044.603515625	767.2667846679688	-293.1560668945312	-1112.382690429688	1648.531982421875	-492.6868286132812	-1007.906066894531	1675.1640625	-668.8098754882812	-984.1808471679688	1671.018188476562	-540.2230834960938	-1159.819702148438	1658.0185546875	-663.1242065429688	-1115.721069335938	863.9097900390625	-801.02587890625	-1131.974975585938	860.7683715820312	-402.2286987304688	-1026.325561523438	900.1073608398438	-464.364013671875	-1017.938598632812	902.5282592773438	-721.8787231445312	-1109.774291992188	441.4670104980469	-742.5768432617188	-1084.924072265625	592.7660522460938	-772.8960571289062	-1228.597412109375	38.5987434387207	-720.6786499023438	-1131.682006835938	289.3062744140625	-747.186767578125	-996.1876220703125	52.51678085327148	-655.3895263671875	-1068.777221679688	53.45564651489258	-623.7718505859375	-1077.257202148438	49.5974235534668	-736.140869140625	-1270.580688476562	46.75225448608398	-655.0137939453125	-1105.538696289062	468.2386474609375	-407.2822265625	-1087.523193359375	730.1090698242188	-385.8859252929688	-1187.58935546875	41.03314208984375	-375.5303649902344	-1118.394409179688	328.3208312988281	-388.8459167480469	-982.7479248046875	50.55603408813477	-452.9482727050781	-1050.158203125	53.5653076171875	-481.7539978027344	-1049.302734375	46.92567443847656	-373.8389587402344	-1260.2236328125	33.75569915771484	-414.8191528320312	
141	1.4	-1247.060302734375	968.9219970703125	-536.3097534179688	-1249.463500976562	968.8952026367188	-678.50732421875	-1230.091064453125	1054.333129882812	-589.5595703125	-970.59228515625	1265.390747070312	-618.0349731445312	-1251.8369140625	1173.463256835938	-590.1790771484375	-1202.927612304688	1444.890869140625	-578.5926513671875	-1013.322265625	1376.962036132812	-615.7787475585938	-1244.035400390625	1319.613403320312	-481.657958984375	-1243.356567382812	1396.52294921875	-675.287353515625	-1153.619750976562	1429.582763671875	-767.2144165039062	-1162.197021484375	1309.40966796875	-865.6283569335938	-1121.582641601562	1092.275512695312	-893.5897216796875	-1196.518310546875	1074.927490234375	-824.1486206054688	-1020.259826660156	900.7353515625	-842.3449096679688	-1066.34716796875	877.961669921875	-897.14892578125	-1092.156494140625	1006.612487792969	-900.1679077148438	-1008.094116210938	732.845703125	-827.6950073242188	-1050.205200195312	799.232421875	-893.1433715820312	-995.5023803710938	814.593994140625	-847.61962890625	-1116.041137695312	1420.17724609375	-427.3800354003906	-1124.140014648438	1358.638427734375	-350.8811340332031	-1100.71240234375	1072.91552734375	-293.9160766601562	-1158.461791992188	1055.984008789062	-324.4205627441406	-1007.938110351562	868.5675659179688	-359.0768737792969	-1060.934936523438	853.7813720703125	-289.2326049804688	-1093.641235351562	1014.121765136719	-286.2049255371094	-1005.177917480469	713.1471557617188	-354.1897277832031	-987.8496704101562	772.117919921875	-349.1387634277344	-1042.45458984375	767.2379150390625	-294.2704467773438	-1110.909545898438	1648.119995117188	-494.7418212890625	-1006.768676757812	1674.4482421875	-671.1126708984375	-982.7450561523438	1670.028564453125	-542.6090087890625	-1158.770263671875	1658.032958984375	-665.018798828125	-1115.593627929688	863.53857421875	-803.37353515625	-1130.91064453125	860.1000366210938	-404.1669311523438	-1025.921752929688	899.861328125	-467.0786437988281	-1017.863464355469	902.3375244140625	-724.4429321289062	-1109.29052734375	441.1284484863281	-743.6286010742188	-1084.460205078125	592.3999633789062	-774.2989501953125	-1228.73681640625	38.439208984375	-720.79296875	-1131.154174804688	288.9135437011719	-747.604736328125	-996.4194946289062	53.2659797668457	-655.0047607421875	-1069.148071289062	53.70143890380859	-623.547607421875	-1077.41943359375	49.86830902099609	-735.8300170898438	-1270.840576171875	46.56228637695312	-655.1632080078125	-1100.060791015625	467.8082580566406	-409.1309509277344	-1084.954711914062	729.6860961914062	-388.144775390625	-1187.401123046875	41.24029922485352	-375.3486328125	-1114.724609375	328.165771484375	-389.9714050292969	-982.6240844726562	50.32389831542969	-452.9992065429688	-1050.05029296875	53.61693572998047	-481.6253356933594	-1049.173461914062	46.76708984375	-373.63720703125	-1260.027954101562	34.44792938232422	-414.6089172363281	
142	1.41	-1246.855102539062	967.8561401367188	-538.2883911132812	-1249.409912109375	968.2509155273438	-680.5560302734375	-1229.897338867188	1053.89990234375	-591.5593872070312	-970.2769165039062	1265.030029296875	-621.1920776367188	-1251.398315429688	1173.152709960938	-591.8355102539062	-1202.28076171875	1444.559326171875	-580.2723388671875	-1012.947875976562	1376.628540039062	-618.6531982421875	-1242.804931640625	1319.269409179688	-483.0299682617188	-1243.295288085938	1396.227783203125	-676.6776733398438	-1154.194702148438	1429.33251953125	-769.2003784179688	-1163.41455078125	1309.229614257812	-867.643310546875	-1122.758544921875	1091.90283203125	-895.54150390625	-1197.382446289062	1074.624633789062	-825.7813720703125	-1020.607727050781	900.88427734375	-844.0010375976562	-1066.738403320312	877.8182983398438	-898.6277465820312	-1093.033813476562	1006.324035644531	-901.962646484375	-1007.752258300781	733.1133422851562	-828.8882446289062	-1050.176513671875	799.0834350585938	-894.395751953125	-995.4421997070312	814.802734375	-849.0968017578125	-1114.39013671875	1419.802978515625	-429.6495361328125	-1121.9521484375	1358.406127929688	-353.0301208496094	-1098.261108398438	1072.882080078125	-295.6194763183594	-1156.345336914062	1055.931274414062	-325.4630126953125	-1006.030944824219	868.3275146484375	-360.7491149902344	-1058.602294921875	853.7555541992188	-290.5391845703125	-1091.179077148438	1014.107116699219	-287.8102111816406	-1003.369873046875	712.9133911132812	-355.4722900390625	-985.94189453125	771.9099731445312	-350.6689758300781	-1040.210693359375	767.1787719726562	-295.426025390625	-1109.662109375	1647.660766601562	-496.9265441894531	-1005.317749023438	1673.625122070312	-673.2430419921875	-981.39208984375	1668.945434570312	-544.7553100585938	-1157.424194335938	1657.999877929688	-667.2222900390625	-1115.414306640625	863.1522827148438	-805.7562255859375	-1129.849731445312	859.2553100585938	-406.115966796875	-1025.649780273438	899.5142211914062	-469.7807006835938	-1017.784973144531	902.0917358398438	-726.9739990234375	-1109.024658203125	440.8160705566406	-744.800537109375	-1084.1337890625	592.034912109375	-775.832763671875	-1228.887084960938	38.26355361938477	-720.9285888671875	-1130.754028320312	288.5402221679688	-748.1145629882812	-996.6154174804688	53.97803497314453	-654.6315307617188	-1069.486206054688	54.00384902954102	-623.3499145507812	-1077.572021484375	50.09474945068359	-735.5653686523438	-1271.116088867188	46.37224578857422	-655.3270874023438	-1093.88232421875	467.4078979492188	-411.0807189941406	-1082.158935546875	729.1620483398438	-390.4736022949219	-1187.119506835938	41.67449188232422	-375.1713256835938	-1110.557861328125	328.0862426757812	-391.1044921875	-982.4252319335938	49.99933242797852	-453.0484924316406	-1049.86181640625	53.68756866455078	-481.4562683105469	-1049.001831054688	46.57976913452148	-373.4233703613281	-1259.756591796875	35.58560943603516	-414.3727722167969	
